<svg xmlns="http://www.w3.org/2000/svg" viewBox="-6.527 2.221 32.279 32.279" role="img" aria-label="Socket scan patterns"><defs><linearGradient id="socket-brand-plate" gradientUnits="userSpaceOnUse" x1="-6.527" y1="0" x2="25.753" y2="0"><stop offset="0%" stop-color="#ff00aa"/><stop offset="100%" stop-color="#8c50ff"/></linearGradient></defs><rect data-socket-layer="plate" x="-6.527" y="2.221" width="32.279" height="32.279" fill="url(#socket-brand-plate)"/><path data-socket-layer="shield" fill="#ffffff" d="M18.44 8.84c.46.16.76.6.76 1.1-.04 3.58.23 8.63-.38 10.88-1.04 4.5-4.42 8.4-8.8 10.1a1.2 1.2 0 0 1-.84 0C4.52 29.15.92 24.73.18 19.8c-.06-.31-.1-.67-.13-.98-.04-.2-.05-1.14-.05-5.17V9.91a1.15 1.15 0 0 1 .76-1.07c2.8-1.02 5.38-1.93 8.2-2.96l.24-.1q.38-.12.77 0l2.24.81z"/><g data-socket-layer="glyph" transform="translate(2.013 9.2) scale(0.63333)"><style>.sk-cell{transform-box:fill-box;transform-origin:center;animation-name:sk-pulse;animation-duration:14s;animation-timing-function:ease-in-out;animation-iteration-count:infinite}@keyframes sk-pulse{0%{transform:scale(1)}4%{transform:scale(1.12)}9%{transform:scale(1.28)}14%{transform:scale(1.12)}19%{transform:scale(1)}100%{transform:scale(1)}}@media (prefers-reduced-motion:reduce){.sk-cell{animation:none}}</style><g class="sk-cell" style="animation-delay:-0.210s"><g class="sk-cell" style="animation-delay:5.890s"><g class="sk-cell" style="animation-delay:9.390s"><g class="sk-cell" style="animation-delay:12.890s"><path fill="url(#socket-brand-plate)" fill-rule="evenodd" d="M2.72 3.77h1.37a.74.74 0 0 1 .74.74v1.37a.74.74 0 0 1-.74.74H2.72a.74.74 0 0 1-.74-.74V4.51a.74.74 0 0 1 .74-.74"/></g></g></g></g><g class="sk-cell" style="animation-delay:1.044s"><g class="sk-cell" style="animation-delay:6.277s"><g class="sk-cell" style="animation-delay:8.790s"><g class="sk-cell" style="animation-delay:12.410s"><path fill="url(#socket-brand-plate)" fill-rule="evenodd" d="M8.45 3.43h1.7a.9.9 0 0 1 .92.92v1.7a.9.9 0 0 1-.92.92h-1.7a.9.9 0 0 1-.92-.92v-1.7a.9.9 0 0 1 .92-.92"/></g></g></g></g><g class="sk-cell" style="animation-delay:1.547s"><g class="sk-cell" style="animation-delay:5.914s"><g class="sk-cell" style="animation-delay:8.426s"><g class="sk-cell" style="animation-delay:11.181s"><path fill="url(#socket-brand-plate)" fill-rule="evenodd" d="M14.3 3.32h1.81a1 1 0 0 1 .98.98v1.81a1 1 0 0 1-.98.98H14.3a1 1 0 0 1-.98-.98V4.3a1 1 0 0 1 .98-.98"/></g></g></g></g><g class="sk-cell" style="animation-delay:2.624s"><g class="sk-cell" style="animation-delay:6.124s"><g class="sk-cell" style="animation-delay:9.624s"><g class="sk-cell" style="animation-delay:10.524s"><path fill="url(#socket-brand-plate)" fill-rule="evenodd" d="M20.29 3.52h1.62a.87.87 0 0 1 .87.87v1.62a.87.87 0 0 1-.87.87h-1.62a.87.87 0 0 1-.87-.87V4.39a.87.87 0 0 1 .87-.87"/></g></g></g></g><g class="sk-cell" style="animation-delay:-0.133s"><g class="sk-cell" style="animation-delay:4.667s"><g class="sk-cell" style="animation-delay:9.030s"><g class="sk-cell" style="animation-delay:12.967s"><path fill="url(#socket-brand-plate)" fill-rule="evenodd" d="M2.51 10.15h1.78a.96.96 0 0 1 .96.96v1.78a.96.96 0 0 1-.96.96H2.51a.96.96 0 0 1-.96-.96v-1.78a.96.96 0 0 1 .96-.96"/></g></g></g></g><g class="sk-cell" style="animation-delay:0.968s"><g class="sk-cell" style="animation-delay:4.901s"><g class="sk-cell" style="animation-delay:7.822s"><g class="sk-cell" style="animation-delay:12.334s"><path fill="url(#socket-brand-plate)" fill-rule="evenodd" d="M8.42 10.16h1.76a.95.95 0 0 1 .95.95v1.76a.95.95 0 0 1-.95.95H8.42a.95.95 0 0 1-.95-.95v-1.76a.95.95 0 0 1 .95-.95"/></g></g></g></g><g class="sk-cell" style="animation-delay:1.760s"><g class="sk-cell" style="animation-delay:4.827s"><g class="sk-cell" style="animation-delay:7.748s"><g class="sk-cell" style="animation-delay:11.394s"><path fill="url(#socket-brand-plate)" fill-rule="evenodd" d="M14.46 10.46h1.48a.8.8 0 0 1 .8.8v1.48a.8.8 0 0 1-.8.8h-1.48a.8.8 0 0 1-.8-.8v-1.48a.8.8 0 0 1 .8-.8"/></g></g></g></g><g class="sk-cell" style="animation-delay:2.581s"><g class="sk-cell" style="animation-delay:4.781s"><g class="sk-cell" style="animation-delay:9.144s"><g class="sk-cell" style="animation-delay:10.481s"><path fill="url(#socket-brand-plate)" fill-rule="evenodd" d="M20.54 10.83h1.12a.6.6 0 0 1 .61.61v1.12a.6.6 0 0 1-.61.61h-1.12a.6.6 0 0 1-.61-.61v-1.12a.6.6 0 0 1 .61-.61"/></g></g></g></g><g class="sk-cell" style="animation-delay:-0.199s"><g class="sk-cell" style="animation-delay:3.301s"><g class="sk-cell" style="animation-delay:9.401s"><g class="sk-cell" style="animation-delay:12.901s"><path fill="url(#socket-brand-plate)" fill-rule="evenodd" d="M2.56 17.06h1.67a.9.9 0 0 1 .91.91v1.67a.9.9 0 0 1-.91.91H2.56a.9.9 0 0 1-.91-.91v-1.67a.9.9 0 0 1 .91-.91"/></g></g></g></g><g class="sk-cell" style="animation-delay:0.688s"><g class="sk-cell" style="animation-delay:3.321s"><g class="sk-cell" style="animation-delay:8.433s"><g class="sk-cell" style="animation-delay:12.054s"><path fill="url(#socket-brand-plate)" fill-rule="evenodd" d="M8.64 17.41h1.33a.7.7 0 0 1 .72.72v1.33a.7.7 0 0 1-.72.72H8.64a.7.7 0 0 1-.72-.72v-1.33a.7.7 0 0 1 .72-.72"/></g></g></g></g><g class="sk-cell" style="animation-delay:1.676s"><g class="sk-cell" style="animation-delay:3.443s"><g class="sk-cell" style="animation-delay:8.555s"><g class="sk-cell" style="animation-delay:11.310s"><path fill="url(#socket-brand-plate)" fill-rule="evenodd" d="M14.69 17.75h1.01a.55.55 0 0 1 .55.55v1.01a.55.55 0 0 1-.55.55h-1.01a.55.55 0 0 1-.55-.55V18.3a.55.55 0 0 1 .55-.55"/></g></g></g></g><g class="sk-cell" style="animation-delay:2.531s"><g class="sk-cell" style="animation-delay:3.431s"><g class="sk-cell" style="animation-delay:9.531s"><g class="sk-cell" style="animation-delay:10.431s"><path fill="url(#socket-brand-plate)" fill-rule="evenodd" d="M20.63 17.82h.94a.5.5 0 0 1 .51.51v.94a.5.5 0 0 1-.51.51h-.94a.5.5 0 0 1-.51-.51v-.94a.5.5 0 0 1 .51-.51"/></g></g></g></g></g></svg>